# xmcd
#
# Track frame offsets:
#	150
#	20075
#	44700
#	66262
#	88362
#	112575
#	136307
#	155482
#	175650
#	197962
#
# Disc length: 2958 seconds
#
# Revision: 1
# Processed by: cddbd v1.5.1PL0 Copyright (c) Steve Scherf et al.
# Submitted via: CDex 1.50Beta5
#
DISCID=8c0b8c0a
DTITLE=D-PROJECT - TEMPEST
DYEAR=1990
DGENRE=
TTITLE0=TEMPEST
TTITLE1=蒼い月
TTITLE2=FLIGHT
TTITLE3=Just Give Me Love
TTITLE4=You’re The Gift of Love
TTITLE5=Solid State City
TTITLE6=PRISONER
TTITLE7=Dark Eyed Angel
TTITLE8=Clear
TTITLE9=Her Blood
EXTD=
EXTT0=
EXTT1=
EXTT2=
EXTT3=
EXTT4=
EXTT5=
EXTT6=
EXTT7=
EXTT8=
EXTT9=
PLAYORDER=
